<svg xmlns="http://www.w3.org/2000/svg" version="1.1" viewBox="0 0 64 80" x="0px" y="0px"><title>up-arrow-1</title><path d="M32 18.045c-1.489-0-2.971 0.559-4.107 1.695l-24.342 24.294c-0.449 0.448-0.448 1.136 0 1.585 0.449 0.45 1.131 0.449 1.581 0l24.346-24.294c1.384-1.382 3.661-1.375 5.044 0.007l24.342 24.29c0.223 0.223 0.5 0.324 0.79 0.324h0.004c0.291 0 0.568-0.103 0.79-0.327 0.448-0.449 0.449-1.137 0-1.585l-24.342-24.294c-1.137-1.136-2.616-1.694-4.107-1.695z"/><text x="0" y="79" fill="#000000" font-size="5px" font-weight="bold" font-family="'Helvetica Neue', Helvetica, Arial-Unicode, Arial, Sans-serif">Created by shuai tawf</text><text x="0" y="84" fill="#000000" font-size="5px" font-weight="bold" font-family="'Helvetica Neue', Helvetica, Arial-Unicode, Arial, Sans-serif">from the Noun Project</text></svg>